<svg width="30" height="30" viewBox="0 0 30 30" fill="none" xmlns="http://www.w3.org/2000/svg">
<g clip-path="url(#clip0)">
<path d="M25.2429 5.07462C22.3624 2.05529 17.9356 1.59182 14.6609 3.41098C14.3779 3.56812 14.276 3.92496 14.4332 4.20785C14.5903 4.49086 14.9472 4.59263 15.2301 4.43554C18.2252 2.77143 21.9939 3.36703 24.3924 5.88111C26.8672 8.50675 27.1458 12.4206 25.2313 15.3222C22.5941 19.3278 16.8983 19.9314 13.4833 16.5157C11.1821 14.2154 10.5154 10.5057 12.1777 7.48687C12.3337 7.20327 12.2302 6.84691 11.9467 6.69093C11.6632 6.53507 11.3069 6.63837 11.1508 6.92191C11.1149 6.98724 11.051 7.109 10.9894 7.23386H10.9895C9.28509 10.7081 10.0605 14.7515 12.6546 17.3445C16.589 21.2798 23.161 20.5982 26.2099 15.9672C28.3965 12.6532 28.1282 8.13585 25.2429 5.07462Z" fill="white"/>
<path d="M26.7444 3.25605C22.4031 -1.08462 15.339 -1.0848 10.9976 3.25611C7.09363 7.16068 6.67334 13.2824 9.85257 17.6617L8.02638 19.4875C7.38613 19.181 6.57648 19.28 6.02512 19.8314L0.859386 24.9977C-0.285944 26.1423 -0.286882 27.9958 0.859093 29.141C2.00395 30.2867 3.85745 30.2871 5.00254 29.1411L10.169 23.9753C10.7202 23.424 10.8194 22.6144 10.5129 21.9741L12.3388 20.1477C16.7192 23.3277 22.8404 22.9063 26.7444 19.0028C31.0852 14.6614 31.0852 7.59749 26.7444 3.25605ZM9.34023 23.1465L4.17362 28.3125C3.48696 28.9997 2.37544 29.0003 1.68784 28.3122C1.00054 27.6254 1.00013 26.5139 1.68796 25.8266L6.85381 20.6601C7.08215 20.4317 7.45392 20.4316 7.68226 20.6601L9.34017 22.318C9.56869 22.5464 9.56869 22.9181 9.34023 23.1465ZM9.7546 21.0749L8.92562 20.2459L10.5944 18.5775C10.7253 18.7227 10.8598 18.8651 10.9976 19.0028C11.1353 19.1406 11.2776 19.2751 11.423 19.406L9.7546 21.0749ZM25.9155 18.1741C22.0321 22.0569 15.7416 22.0899 11.8262 18.1741C7.91553 14.2637 7.93879 7.97296 11.8262 4.08486C15.7104 0.201274 22.0308 0.200629 25.9155 4.08486C29.7994 7.96927 29.7994 14.2897 25.9155 18.1741Z" fill="white"/>
<path d="M13.4971 4.92788C13.493 4.9226 13.4883 4.91791 13.4831 4.91264C13.2539 4.68407 12.883 4.68407 12.6539 4.91264C12.4253 5.1418 12.4253 5.51276 12.6539 5.74186C12.6591 5.74713 12.6638 5.75182 12.6691 5.75651C12.8994 5.97043 13.2592 5.96516 13.4831 5.74186C13.7063 5.51797 13.7116 5.15815 13.4971 4.92788Z" fill="white"/>
</g>
<defs>
<clipPath id="clip0">
<rect width="30" height="30" fill="white"/>
</clipPath>
</defs>
</svg>
